Monda-Bold-Italic.ufo
<glyph name="quotedbl" format="1">
  <advance width="1024"/>
  <unicode hex="0022"/>
  <outline>
    <contour>
      <point x="226" y="872" type="line"/>
      <point x="345" y="872" type="line"/>
      <point x="502" y="1516" type="line"/>
      <point x="249" y="1516" type="line"/>
    </contour>
    <contour>
      <point x="579" y="872" type="line"/>
      <point x="698" y="872" type="line"/>
      <point x="877" y="1516" type="line"/>
      <point x="623" y="1516" type="line"/>
    </contour>
  </outline>
</glyph>
<glyph name="parenright" format="1">
  <advance width="946"/>
  <unicode hex="0029"/>
  <outline>
    <contour>
      <point x="44" y="-159" type="line"/>
      <point x="482" y="-160"/>
      <point x="654" y="74"/>
      <point x="710" y="430" type="curve" smooth="yes"/>
      <point x="800" y="996" type="line" smooth="yes"/>
      <point x="856" y="1349"/>
      <point x="755" y="1576"/>
      <point x="318" y="1575" type="curve"/>
      <point x="284" y="1359" type="line"/>
      <point x="492" y="1359"/>
      <point x="569" y="1295"/>
      <point x="526" y="1025" type="curve" smooth="yes"/>
      <point x="426" y="395" type="line" smooth="yes"/>
      <point x="384" y="125"/>
      <point x="284" y="57"/>
      <point x="78" y="57" type="curve"/>
    </contour>
  </outline>
</glyph>
<glyph name="asterisk" format="1">
  <advance width="998"/>
  <unicode hex="002A"/>
  <outline>
    <contour>
      <point x="343" y="599" type="line"/>
      <point x="521" y="599" type="line"/>
      <point x="541" y="912" type="line"/>
      <point x="758" y="722" type="line"/>
      <point x="878" y="875" type="line"/>
      <point x="620" y="1017" type="line"/>
      <point x="930" y="1134" type="line"/>
      <point x="874" y="1295" type="line"/>
      <point x="574" y="1121" type="line"/>
      <point x="655" y="1446" type="line"/>
      <point x="477" y="1446" type="line"/>
      <point x="456" y="1133" type="line"/>
      <point x="239" y="1323" type="line"/>
      <point x="119" y="1170" type="line"/>
      <point x="377" y="1028" type="line"/>
      <point x="68" y="911" type="line"/>
      <point x="123" y="750" type="line"/>
      <point x="423" y="924" type="line"/>
    </contour>
  </outline>
</glyph>
<glyph name="hyphen" format="1">
  <advance width="968"/>
  <unicode hex="002D"/>
  <outline>
    <contour>
      <point x="476" y="569" type="move" name="_mid"/>
    </contour>
    <contour>
      <point x="120" y="494" type="line"/>
      <point x="824" y="494" type="line"/>
      <point x="848" y="642" type="line"/>
      <point x="144" y="642" type="line"/>
    </contour>
  </outline>
</glyph>
<glyph name="seven" format="1">
  <advance width="1379"/>
  <unicode hex="0037"/>
  <outline>
    <contour>
      <point x="237" y="0" type="line"/>
      <point x="551" y="0" type="line"/>
      <point x="1306" y="1270" type="line"/>
      <point x="1339" y="1476" type="line"/>
      <point x="341" y="1476" type="line"/>
      <point x="304" y="1244" type="line"/>
      <point x="978" y="1244" type="line"/>
    </contour>
  </outline>
</glyph>
<glyph name="E" format="1">
  <advance width="1316"/>
  <unicode hex="0045"/>
  <outline>
    <contour>
      <point x="860" y="1476" type="move" name="top"/>
    </contour>
    <contour>
      <point x="775" y="0" type="move" name="ogonek"/>
    </contour>
    <contour>
      <point x="610" y="0" type="move" name="bot"/>
    </contour>
    <contour>
      <point x="95" y="0" type="line"/>
      <point x="1073" y="0" type="line"/>
      <point x="1109" y="224" type="line"/>
      <point x="427" y="224" type="line"/>
      <point x="493" y="646" type="line"/>
      <point x="1088" y="646" type="line"/>
      <point x="1122" y="860" type="line"/>
      <point x="527" y="860" type="line"/>
      <point x="589" y="1252" type="line"/>
      <point x="1260" y="1252" type="line"/>
      <point x="1296" y="1476" type="line"/>
      <point x="329" y="1476" type="line"/>
    </contour>
  </outline>
</glyph>
<glyph name="K" format="1">
  <advance width="1470"/>
  <unicode hex="004B"/>
  <outline>
    <contour>
      <point x="873" y="1476" type="move" name="top"/>
    </contour>
    <contour>
      <point x="665" y="0" type="move" name="bot"/>
    </contour>
    <contour>
      <point x="95" y="0" type="line"/>
      <point x="392" y="0" type="line"/>
      <point x="478" y="541" type="line"/>
      <point x="639" y="679" type="line"/>
      <point x="996" y="0" type="line"/>
      <point x="1331" y="0" type="line"/>
      <point x="904" y="804" type="line"/>
      <point x="1528" y="1476" type="line"/>
      <point x="1200" y="1476" type="line"/>
      <point x="512" y="760" type="line"/>
      <point x="626" y="1476" type="line"/>
      <point x="329" y="1476" type="line"/>
    </contour>
  </outline>
</glyph>
<glyph name="R" format="1">
  <advance width="1524"/>
  <unicode hex="0052"/>
  <outline>
    <contour>
      <point x="835" y="1476" type="move" name="top"/>
    </contour>
    <contour>
      <point x="686" y="0" type="move" name="bot"/>
    </contour>
    <contour>
      <point x="95" y="0" type="line"/>
      <point x="392" y="0" type="line"/>
      <point x="484" y="583" type="line"/>
      <point x="818" y="583" type="line"/>
      <point x="985" y="0" type="line"/>
      <point x="1293" y="0" type="line"/>
      <point x="1107" y="626" type="line"/>
      <point x="1299" y="699"/>
      <point x="1360" y="853"/>
      <point x="1389" y="1035" type="curve" smooth="yes"/>
      <point x="1431" y="1301"/>
      <point x="1358" y="1476"/>
      <point x="966" y="1476" type="curve" smooth="yes"/>
      <point x="329" y="1476" type="line"/>
    </contour>
    <contour>
      <point x="518" y="795" type="line"/>
      <point x="592" y="1265" type="line"/>
      <point x="969" y="1265" type="line" smooth="yes"/>
      <point x="1116" y="1265"/>
      <point x="1122" y="1142"/>
      <point x="1103" y="1022" type="curve" smooth="yes"/>
      <point x="1083" y="896"/>
      <point x="1035" y="795"/>
      <point x="883" y="795" type="curve" smooth="yes"/>
    </contour>
  </outline>
</glyph>
<glyph name="g" format="1">
  <advance width="1243"/>
  <unicode hex="0067"/>
  <outline>
    <contour>
      <point x="696" y="1074" type="move" name="top"/>
    </contour>
    <contour>
      <point x="468" y="-441" type="curve" smooth="yes"/>
      <point x="813" y="-441"/>
      <point x="979" y="-277"/>
      <point x="1021" y="-12" type="curve" smooth="yes"/>
      <point x="1193" y="1075" type="line"/>
      <point x="991" y="1075" type="line"/>
      <point x="956" y="997" type="line"/>
      <point x="898" y="1052"/>
      <point x="789" y="1097"/>
      <point x="671" y="1097" type="curve" smooth="yes"/>
      <point x="368" y="1097"/>
      <point x="236" y="935"/>
      <point x="207" y="751" type="curve" smooth="yes"/>
      <point x="146" y="366" type="line" smooth="yes"/>
      <point x="113" y="155"/>
      <point x="253" y="32"/>
      <point x="512" y="32" type="curve" smooth="yes"/>
      <point x="594" y="32"/>
      <point x="695" y="50"/>
      <point x="765" y="88" type="curve"/>
      <point x="746" y="-30" type="line" smooth="yes"/>
      <point x="723" y="-178"/>
      <point x="646" y="-242"/>
      <point x="490" y="-242" type="curve" smooth="yes"/>
      <point x="407" y="-242"/>
      <point x="304" y="-228"/>
      <point x="207" y="-200" type="curve"/>
      <point x="122" y="-385" type="line"/>
      <point x="191" y="-421"/>
      <point x="335" y="-441"/>
    </contour>
    <contour>
      <point x="586" y="213" type="curve" smooth="yes"/>
      <point x="473" y="213"/>
      <point x="399" y="248"/>
      <point x="416" y="356" type="curve" smooth="yes"/>
      <point x="480" y="757" type="line" smooth="yes"/>
      <point x="497" y="865"/>
      <point x="572" y="907"/>
      <point x="696" y="907" type="curve" smooth="yes"/>
      <point x="819" y="907"/>
      <point x="887" y="860"/>
      <point x="883" y="832" type="curve" smooth="yes"/>
      <point x="792" y="261" type="line"/>
      <point x="751" y="234"/>
      <point x="678" y="213"/>
    </contour>
  </outline>
</glyph>
<glyph name="l" format="1">
  <advance width="734"/>
  <unicode hex="006C"/>
  <outline>
    <contour>
      <point x="456" y="1513" type="move" name="top"/>
    </contour>
    <contour>
      <point x="376" y="1074" type="move" name="caron.alt"/>
    </contour>
    <contour>
      <point x="353" y="0" type="move" name="bot"/>
    </contour>
    <contour>
      <point x="412" y="-12" type="curve" smooth="yes"/>
      <point x="526" y="-12" type="line"/>
      <point x="579" y="190" type="line"/>
      <point x="545" y="190" type="line" smooth="yes"/>
      <point x="399" y="190"/>
      <point x="361" y="239"/>
      <point x="380" y="357" type="curve" smooth="yes"/>
      <point x="563" y="1515" type="line"/>
      <point x="291" y="1515" type="line"/>
      <point x="107" y="353" type="line" smooth="yes"/>
      <point x="64" y="83"/>
      <point x="173" y="-12"/>
    </contour>
  </outline>
</glyph>
<glyph name="s" format="1">
  <advance width="1048"/>
  <unicode hex="0073"/>
  <outline>
    <contour>
      <point x="659" y="1074" type="move" name="top"/>
    </contour>
    <contour>
      <point x="449" y="0" type="move" name="bot"/>
    </contour>
    <contour>
      <point x="456" y="-20" type="curve" smooth="yes"/>
      <point x="678" y="-20"/>
      <point x="866" y="71"/>
      <point x="903" y="303" type="curve" smooth="yes"/>
      <point x="930" y="471"/>
      <point x="884" y="569"/>
      <point x="712" y="626" type="curve" smooth="yes"/>
      <point x="501" y="696" type="line" smooth="yes"/>
      <point x="454" y="711"/>
      <point x="435" y="744"/>
      <point x="442" y="792" type="curve" smooth="yes"/>
      <point x="453" y="861"/>
      <point x="488" y="907"/>
      <point x="612" y="907" type="curve" smooth="yes"/>
      <point x="714" y="907"/>
      <point x="842" y="870"/>
      <point x="900" y="837" type="curve"/>
      <point x="990" y="1006" type="line"/>
      <point x="891" y="1060"/>
      <point x="754" y="1094"/>
      <point x="621" y="1094" type="curve" smooth="yes"/>
      <point x="415" y="1094"/>
      <point x="219" y="1013"/>
      <point x="183" y="796" type="curve" smooth="yes"/>
      <point x="157" y="652"/>
      <point x="196" y="542"/>
      <point x="356" y="489" type="curve" smooth="yes"/>
      <point x="581" y="415" type="line" smooth="yes"/>
      <point x="646" y="393"/>
      <point x="662" y="354"/>
      <point x="655" y="307" type="curve" smooth="yes"/>
      <point x="646" y="252"/>
      <point x="614" y="166"/>
      <point x="486" y="166" type="curve" smooth="yes"/>
      <point x="380" y="166"/>
      <point x="252" y="197"/>
      <point x="145" y="246" type="curve"/>
      <point x="61" y="61" type="line"/>
      <point x="189" y="11"/>
      <point x="328" y="-20"/>
    </contour>
  </outline>
</glyph>
<glyph name="braceleft" format="1">
  <advance width="992"/>
  <unicode hex="007B"/>
  <outline>
    <contour>
      <point x="713" y="-128" type="curve"/>
      <point x="713" y="-128"/>
      <point x="741" y="46"/>
      <point x="740" y="46" type="curve" smooth="yes"/>
      <point x="567" y="46"/>
      <point x="562" y="101"/>
      <point x="586" y="252" type="curve" smooth="yes"/>
      <point x="604" y="369" type="line" smooth="yes"/>
      <point x="636" y="569"/>
      <point x="611" y="680"/>
      <point x="499" y="722" type="curve"/>
      <point x="618" y="758"/>
      <point x="687" y="896"/>
      <point x="716" y="1080" type="curve" smooth="yes"/>
      <point x="737" y="1210" type="line" smooth="yes"/>
      <point x="759" y="1349"/>
      <point x="777" y="1382"/>
      <point x="952" y="1382" type="curve" smooth="yes"/>
      <point x="953" y="1382"/>
      <point x="979" y="1556"/>
      <point x="979" y="1556" type="curve"/>
      <point x="622" y="1556"/>
      <point x="506" y="1515"/>
      <point x="446" y="1139" type="curve" smooth="yes"/>
      <point x="430" y="1036" type="line" smooth="yes"/>
      <point x="404" y="873"/>
      <point x="354" y="833"/>
      <point x="207" y="833" type="curve"/>
      <point x="169" y="595" type="line"/>
      <point x="315" y="595"/>
      <point x="357" y="572"/>
      <point x="331" y="409" type="curve" smooth="yes"/>
      <point x="317" y="322" type="line" smooth="yes"/>
      <point x="264" y="-11"/>
      <point x="338" y="-128"/>
    </contour>
  </outline>
</glyph>
<glyph name="dieresis" format="1">
  <advance width="967"/>
  <unicode hex="00A8"/>
  <outline>
    <contour>
      <point x="450" y="1074" type="move" name="_top"/>
    </contour>
    <contour>
      <point x="97" y="1244" type="line"/>
      <point x="361" y="1244" type="line"/>
      <point x="397" y="1477" type="line"/>
      <point x="133" y="1477" type="line"/>
    </contour>
    <contour>
      <point x="606" y="1244" type="line"/>
      <point x="871" y="1244" type="line"/>
      <point x="907" y="1477" type="line"/>
      <point x="642" y="1477" type="line"/>
    </contour>
  </outline>
</glyph>
<glyph name="copyright" format="1">
  <advance width="1776"/>
  <unicode hex="00A9"/>
  <outline>
    <contour>
      <point x="830" y="287" type="curve" smooth="yes"/>
      <point x="1106" y="287"/>
      <point x="1177" y="422"/>
      <point x="1205" y="598" type="curve" smooth="yes"/>
      <point x="1210" y="632" type="line"/>
      <point x="1094" y="632" type="line"/>
      <point x="1084" y="571" type="line" smooth="yes"/>
      <point x="1060" y="419"/>
      <point x="997" y="376"/>
      <point x="844" y="376" type="curve" smooth="yes"/>
      <point x="692" y="376"/>
      <point x="619" y="419"/>
      <point x="643" y="571" type="curve" smooth="yes"/>
      <point x="694" y="890" type="line" smooth="yes"/>
      <point x="718" y="1042"/>
      <point x="806" y="1091"/>
      <point x="957" y="1091" type="curve" smooth="yes"/>
      <point x="1109" y="1091"/>
      <point x="1159" y="1042"/>
      <point x="1135" y="890" type="curve" smooth="yes"/>
      <point x="1125" y="826" type="line"/>
      <point x="1242" y="836" type="line"/>
      <point x="1246" y="861" type="line" smooth="yes"/>
      <point x="1275" y="1043"/>
      <point x="1248" y="1182"/>
      <point x="971" y="1182" type="curve" smooth="yes"/>
      <point x="683" y="1182"/>
      <point x="599" y="1050"/>
      <point x="570" y="868" type="curve" smooth="yes"/>
      <point x="526" y="590" type="line" smooth="yes"/>
      <point x="498" y="411"/>
      <point x="543" y="287"/>
    </contour>
    <contour>
      <point x="789" y="82" type="curve" smooth="yes"/>
      <point x="425" y="82"/>
      <point x="203" y="357"/>
      <point x="261" y="722" type="curve" smooth="yes"/>
      <point x="319" y="1086"/>
      <point x="627" y="1361"/>
      <point x="991" y="1361" type="curve" smooth="yes"/>
      <point x="1357" y="1361"/>
      <point x="1576" y="1086"/>
      <point x="1518" y="722" type="curve" smooth="yes"/>
      <point x="1460" y="357"/>
      <point x="1155" y="82"/>
    </contour>
    <contour>
      <point x="772" y="-14" type="curve" smooth="yes"/>
      <point x="1188" y="-14"/>
      <point x="1558" y="303"/>
      <point x="1624" y="722" type="curve" smooth="yes"/>
      <point x="1690" y="1139"/>
      <point x="1420" y="1456"/>
      <point x="1004" y="1456" type="curve" smooth="yes"/>
      <point x="591" y="1456"/>
      <point x="218" y="1139"/>
      <point x="152" y="722" type="curve" smooth="yes"/>
      <point x="86" y="303"/>
      <point x="359" y="-14"/>
    </contour>
  </outline>
</glyph>
<glyph name="ordfeminine" format="1">
  <advance width="1024"/>
  <unicode hex="00AA"/>
  <outline>
    <contour>
      <point x="310" y="517" type="line"/>
      <point x="437" y="517"/>
      <point x="542" y="591"/>
      <point x="599" y="656" type="curve"/>
      <point x="618" y="582"/>
      <point x="643" y="531"/>
      <point x="763" y="531" type="curve" smooth="yes"/>
      <point x="848" y="531" type="line"/>
      <point x="893" y="701" type="line"/>
      <point x="823" y="701"/>
      <point x="811" y="728"/>
      <point x="825" y="812" type="curve" smooth="yes"/>
      <point x="881" y="1166" type="line" smooth="yes"/>
      <point x="911" y="1356"/>
      <point x="841" y="1478"/>
      <point x="582" y="1478" type="curve" smooth="yes"/>
      <point x="345" y="1478"/>
      <point x="219" y="1363"/>
      <point x="191" y="1185" type="curve" smooth="yes"/>
      <point x="186" y="1158" type="line"/>
      <point x="391" y="1158" type="line"/>
      <point x="397" y="1194" type="line" smooth="yes"/>
      <point x="408" y="1265"/>
      <point x="441" y="1316"/>
      <point x="551" y="1316" type="curve" smooth="yes"/>
      <point x="649" y="1316"/>
      <point x="678" y="1278"/>
      <point x="667" y="1204" type="curve"/>
      <point x="647" y="1088"/>
      <point x="579" y="1087"/>
      <point x="415" y="1037" type="curve" smooth="yes"/>
      <point x="158" y="959"/>
      <point x="114" y="897"/>
      <point x="97" y="767" type="curve" smooth="yes"/>
      <point x="77" y="615"/>
      <point x="160" y="518"/>
      <point x="308" y="518" type="curve"/>
    </contour>
    <contour>
      <point x="408" y="684" type="line"/>
      <point x="335" y="684"/>
      <point x="303" y="724"/>
      <point x="312" y="796" type="curve" smooth="yes"/>
      <point x="318" y="848"/>
      <point x="354" y="896"/>
      <point x="451" y="924" type="curve" smooth="yes"/>
      <point x="528" y="946"/>
      <point x="603" y="976"/>
      <point x="634" y="1002" type="curve"/>
      <point x="597" y="770" type="line"/>
      <point x="547" y="706"/>
      <point x="462" y="684"/>
      <point x="409" y="684" type="curve" smooth="yes"/>
    </contour>
  </outline>
</glyph>
<glyph name="acute" format="1">
  <advance width="554"/>
  <unicode hex="00B4"/>
  <outline>
    <contour>
      <point x="115" y="1074" type="move" name="_top"/>
    </contour>
    <contour>
      <point x="77" y="1218" type="line"/>
      <point x="226" y="1218" type="line"/>
      <point x="517" y="1583" type="line"/>
      <point x="249" y="1583" type="line"/>
    </contour>
  </outline>
</glyph>
<glyph name="onesuperior" format="1">
  <advance width="1127"/>
  <unicode hex="00B9"/>
  <outline>
    <contour>
      <point x="139" y="624" type="line"/>
      <point x="867" y="624" type="line"/>
      <point x="889" y="761" type="line"/>
      <point x="640" y="761" type="line"/>
      <point x="766" y="1556" type="line"/>
      <point x="631" y="1556" type="line"/>
      <point x="276" y="1509" type="line"/>
      <point x="271" y="1366" type="line"/>
      <point x="546" y="1401" type="line"/>
      <point x="445" y="761" type="line"/>
      <point x="161" y="761" type="line"/>
    </contour>
  </outline>
</glyph>
<glyph name="Oslash" format="1">
  <advance width="1606"/>
  <unicode hex="00D8"/>
  <outline>
    <contour>
      <point x="352" y="-217" type="line"/>
      <point x="1375" y="1675" type="line"/>
      <point x="1292" y="1698" type="line"/>
      <point x="269" y="-194" type="line"/>
    </contour>
    <component base="O"/>
  </outline>
</glyph>
<glyph name="ae" format="1">
  <advance width="1734"/>
  <unicode hex="00E6"/>
  <outline>
    <contour>
      <point x="975" y="1074" type="move" name="top"/>
    </contour>
    <contour>
      <point x="331" y="-23" type="curve" smooth="yes"/>
      <point x="532" y="-23"/>
      <point x="654" y="31"/>
      <point x="783" y="130" type="curve"/>
      <point x="821" y="29"/>
      <point x="928" y="-23"/>
      <point x="1097" y="-23" type="curve" smooth="yes"/>
      <point x="1387" y="-23"/>
      <point x="1537" y="41"/>
      <point x="1593" y="353" type="curve"/>
      <point x="1341" y="353" type="line"/>
      <point x="1310" y="184"/>
      <point x="1254" y="166"/>
      <point x="1131" y="166" type="curve" smooth="yes"/>
      <point x="1018" y="166"/>
      <point x="959" y="203"/>
      <point x="978" y="321" type="curve" smooth="yes"/>
      <point x="1008" y="514" type="line"/>
      <point x="1620" y="514" type="line"/>
      <point x="1657" y="745" type="line" smooth="yes"/>
      <point x="1691" y="961"/>
      <point x="1602" y="1097"/>
      <point x="1276" y="1097" type="curve" smooth="yes"/>
      <point x="1145" y="1097"/>
      <point x="1032" y="1055"/>
      <point x="946" y="967" type="curve"/>
      <point x="913" y="1056"/>
      <point x="796" y="1097"/>
      <point x="662" y="1097" type="curve" smooth="yes"/>
      <point x="367" y="1097"/>
      <point x="210" y="953"/>
      <point x="177" y="745" type="curve" smooth="yes"/>
      <point x="173" y="719" type="line"/>
      <point x="429" y="719" type="line"/>
      <point x="435" y="755" type="line" smooth="yes"/>
      <point x="448" y="838"/>
      <point x="489" y="908"/>
      <point x="626" y="908" type="curve" smooth="yes"/>
      <point x="754" y="908"/>
      <point x="789" y="852"/>
      <point x="776" y="770" type="curve" smooth="yes"/>
      <point x="754" y="631"/>
      <point x="673" y="640"/>
      <point x="456" y="586" type="curve" smooth="yes"/>
      <point x="136" y="508"/>
      <point x="88" y="420"/>
      <point x="69" y="268" type="curve" smooth="yes"/>
      <point x="46" y="90"/>
      <point x="147" y="-23"/>
    </contour>
    <contour>
      <point x="455" y="157" type="curve" smooth="yes"/>
      <point x="365" y="157"/>
      <point x="323" y="206"/>
      <point x="334" y="290" type="curve" smooth="yes"/>
      <point x="343" y="351"/>
      <point x="377" y="418"/>
      <point x="513" y="447" type="curve" smooth="yes"/>
      <point x="615" y="470"/>
      <point x="708" y="499"/>
      <point x="736" y="520" type="curve"/>
      <point x="695" y="259" type="line"/>
      <point x="633" y="183"/>
      <point x="521" y="157"/>
    </contour>
    <contour>
      <point x="1031" y="655" type="line"/>
      <point x="1047" y="760" type="line" smooth="yes"/>
      <point x="1065" y="874"/>
      <point x="1143" y="907"/>
      <point x="1252" y="907" type="curve" smooth="yes"/>
      <point x="1361" y="907"/>
      <point x="1426" y="884"/>
      <point x="1407" y="765" type="curve" smooth="yes"/>
      <point x="1390" y="655" type="line"/>
    </contour>
  </outline>
</glyph>
<glyph name="hbar" format="1">
  <advance width="1254"/>
  <unicode hex="0127"/>
  <outline>
    <contour>
      <point x="78" y="1221" type="line"/>
      <point x="808" y="1221" type="line"/>
      <point x="831" y="1364" type="line"/>
      <point x="101" y="1364" type="line"/>
    </contour>
    <component base="h"/>
  </outline>
</glyph>
<glyph name="oe" format="1">
  <advance width="1780"/>
  <unicode hex="0153"/>
  <outline>
    <contour>
      <point x="495" y="-23" type="curve" smooth="yes"/>
      <point x="645" y="-23"/>
      <point x="753" y="22"/>
      <point x="834" y="90" type="curve"/>
      <point x="903" y="18"/>
      <point x="1008" y="-23"/>
      <point x="1133" y="-23" type="curve" smooth="yes"/>
      <point x="1423" y="-23"/>
      <point x="1585" y="45"/>
      <point x="1641" y="357" type="curve"/>
      <point x="1387" y="357" type="line"/>
      <point x="1357" y="188"/>
      <point x="1290" y="166"/>
      <point x="1168" y="166" type="curve" smooth="yes"/>
      <point x="1054" y="166"/>
      <point x="989" y="203"/>
      <point x="1008" y="321" type="curve" smooth="yes"/>
      <point x="1038" y="512" type="line"/>
      <point x="1666" y="512" type="line"/>
      <point x="1703" y="745" type="line" smooth="yes"/>
      <point x="1737" y="961"/>
      <point x="1635" y="1097"/>
      <point x="1309" y="1097" type="curve" smooth="yes"/>
      <point x="1178" y="1097"/>
      <point x="1064" y="1061"/>
      <point x="973" y="977" type="curve"/>
      <point x="908" y="1060"/>
      <point x="805" y="1097"/>
      <point x="673" y="1097" type="curve" smooth="yes"/>
      <point x="396" y="1097"/>
      <point x="193" y="970"/>
      <point x="158" y="749" type="curve" smooth="yes"/>
      <point x="91" y="326" type="line" smooth="yes"/>
      <point x="57" y="112"/>
      <point x="157" y="-23"/>
    </contour>
    <contour>
      <point x="525" y="166" type="curve" smooth="yes"/>
      <point x="402" y="166"/>
      <point x="344" y="205"/>
      <point x="362" y="314" type="curve" smooth="yes"/>
      <point x="433" y="762" type="line" smooth="yes"/>
      <point x="450" y="870"/>
      <point x="529" y="907"/>
      <point x="643" y="907" type="curve" smooth="yes"/>
      <point x="766" y="907"/>
      <point x="822" y="869"/>
      <point x="805" y="762" type="curve" smooth="yes"/>
      <point x="734" y="314" type="line" smooth="yes"/>
      <point x="716" y="205"/>
      <point x="639" y="166"/>
    </contour>
    <contour>
      <point x="1061" y="655" type="line"/>
      <point x="1077" y="760" type="line" smooth="yes"/>
      <point x="1095" y="874"/>
      <point x="1177" y="907"/>
      <point x="1286" y="907" type="curve" smooth="yes"/>
      <point x="1395" y="907"/>
      <point x="1468" y="884"/>
      <point x="1449" y="765" type="curve" smooth="yes"/>
      <point x="1432" y="655" type="line"/>
    </contour>
  </outline>
</glyph>
<glyph name="caron" format="1">
  <advance width="512"/>
  <unicode hex="02C7"/>
  <outline>
    <contour>
      <point x="221" y="1074" type="move" name="_top"/>
    </contour>
    <contour>
      <point x="356" y="1216" type="line"/>
      <point x="614" y="1514" type="line"/>
      <point x="389" y="1514" type="line"/>
      <point x="268" y="1371" type="line"/>
      <point x="185" y="1514" type="line"/>
      <point x="-45" y="1514" type="line"/>
      <point x="131" y="1216" type="line"/>
    </contour>
  </outline>
</glyph>
<glyph name="ring" format="1">
  <advance width="592"/>
  <unicode hex="02DA"/>
  <outline>
    <contour>
      <point x="246" y="1074" type="move" name="_top"/>
    </contour>
    <contour>
      <point x="277" y="1271" type="curve" smooth="yes"/>
      <point x="209" y="1271"/>
      <point x="163" y="1298"/>
      <point x="178" y="1395" type="curve" smooth="yes"/>
      <point x="193" y="1491"/>
      <point x="248" y="1518"/>
      <point x="315" y="1518" type="curve" smooth="yes"/>
      <point x="383" y="1518"/>
      <point x="429" y="1490"/>
      <point x="414" y="1393" type="curve" smooth="yes"/>
      <point x="399" y="1297"/>
      <point x="344" y="1271"/>
    </contour>
    <contour>
      <point x="262" y="1181" type="curve" smooth="yes"/>
      <point x="405" y="1181"/>
      <point x="505" y="1258"/>
      <point x="526" y="1394" type="curve" smooth="yes"/>
      <point x="548" y="1530"/>
      <point x="472" y="1606"/>
      <point x="330" y="1606" type="curve" smooth="yes"/>
      <point x="187" y="1606"/>
      <point x="88" y="1530"/>
      <point x="66" y="1394" type="curve" smooth="yes"/>
      <point x="45" y="1258"/>
      <point x="119" y="1181"/>
    </contour>
  </outline>
</glyph>
<glyph name="uni0358" format="1">
  <advance width="600"/>
  <unicode hex="0358"/>
  <outline>
    <contour>
      <point x="247" y="1060" type="move" name="_top"/>
    </contour>
    <contour>
      <point x="183" y="1327" type="line"/>
      <point x="376" y="1327" type="line"/>
      <point x="408" y="1535" type="line"/>
      <point x="215" y="1535" type="line"/>
    </contour>
  </outline>
</glyph>
<glyph name="emdash" format="1">
  <advance width="961"/>
  <unicode hex="2014"/>
  <outline>
    <contour>
      <point x="-11" y="383" type="line"/>
      <point x="943" y="383" type="line"/>
      <point x="971" y="556" type="line"/>
      <point x="17" y="556" type="line"/>
    </contour>
  </outline>
</glyph>
<glyph name="quoteleft" format="1">
  <advance width="874"/>
  <unicode hex="2018"/>
  <outline>
    <contour>
      <point x="545" y="1503" type="line"/>
      <point x="474" y="1447"/>
      <point x="310" y="1262"/>
      <point x="279" y="1061" type="curve" smooth="yes"/>
      <point x="243" y="838" type="line"/>
      <point x="565" y="838" type="line"/>
      <point x="609" y="1114" type="line"/>
      <point x="444" y="1114" type="line"/>
      <point x="466" y="1252"/>
      <point x="584" y="1399"/>
      <point x="644" y="1457" type="curve"/>
    </contour>
  </outline>
</glyph>
<glyph name="quoteright" format="1">
  <advance width="834"/>
  <unicode hex="2019"/>
  <outline>
    <contour>
      <point x="329" y="839" type="line"/>
      <point x="400" y="895"/>
      <point x="564" y="1080"/>
      <point x="595" y="1281" type="curve" smooth="yes"/>
      <point x="631" y="1504" type="line"/>
      <point x="309" y="1504" type="line"/>
      <point x="265" y="1228" type="line"/>
      <point x="430" y="1228" type="line"/>
      <point x="408" y="1090"/>
      <point x="290" y="943"/>
      <point x="230" y="885" type="curve"/>
    </contour>
  </outline>
</glyph>
<glyph name="dagger" format="1">
  <advance width="1024"/>
  <unicode hex="2020"/>
  <outline>
    <contour>
      <point x="304" y="0" type="line"/>
      <point x="509" y="0" type="line"/>
      <point x="645" y="857" type="line"/>
      <point x="896" y="857" type="line"/>
      <point x="921" y="1013" type="line"/>
      <point x="670" y="1013" type="line"/>
      <point x="719" y="1324" type="line"/>
      <point x="514" y="1324" type="line"/>
      <point x="465" y="1013" type="line"/>
      <point x="215" y="1013" type="line"/>
      <point x="190" y="857" type="line"/>
      <point x="440" y="857" type="line"/>
    </contour>
  </outline>
</glyph>
<glyph name="Euro" format="1">
  <advance width="1490"/>
  <unicode hex="20AC"/>
  <outline>
    <contour>
      <point x="804" y="838" type="line"/>
      <point x="825" y="972" type="line"/>
      <point x="83" y="972" type="line"/>
      <point x="62" y="838" type="line"/>
    </contour>
    <contour>
      <point x="756" y="536" type="line"/>
      <point x="777" y="670" type="line"/>
      <point x="35" y="670" type="line"/>
      <point x="14" y="536" type="line"/>
    </contour>
    <component base="C"/>
  </outline>
</glyph>
<glyph name="emptyset" format="1">
  <advance width="1552"/>
  <unicode hex="2205"/>
  <outline>
    <contour>
      <point x="704" y="206" type="curve" smooth="yes"/>
      <point x="433" y="206"/>
      <point x="268" y="410"/>
      <point x="311" y="682" type="curve" smooth="yes"/>
      <point x="354" y="952"/>
      <point x="584" y="1157"/>
      <point x="855" y="1157" type="curve" smooth="yes"/>
      <point x="1127" y="1157"/>
      <point x="1288" y="952"/>
      <point x="1245" y="682" type="curve" smooth="yes"/>
      <point x="1202" y="410"/>
      <point x="976" y="206"/>
    </contour>
    <contour>
      <point x="680" y="66" type="curve" smooth="yes"/>
      <point x="1028" y="66"/>
      <point x="1338" y="331"/>
      <point x="1393" y="682" type="curve" smooth="yes"/>
      <point x="1449" y="1031"/>
      <point x="1223" y="1296"/>
      <point x="875" y="1296" type="curve" smooth="yes"/>
      <point x="529" y="1296"/>
      <point x="217" y="1031"/>
      <point x="161" y="682" type="curve" smooth="yes"/>
      <point x="106" y="331"/>
      <point x="334" y="66"/>
    </contour>
    <contour>
      <point x="103" y="70" type="line"/>
      <point x="178" y="-6" type="line"/>
      <point x="1459" y="1277" type="line"/>
      <point x="1384" y="1353" type="line"/>
    </contour>
  </outline>
</glyph>
<glyph name="bulletoperator" format="1">
  <advance width="459"/>
  <unicode hex="2219"/>
  <outline>
    <contour>
      <point x="97" y="1251" type="line"/>
      <point x="345" y="1251" type="line"/>
      <point x="385" y="1498" type="line"/>
      <point x="137" y="1498" type="line"/>
    </contour>
  </outline>
</glyph>
<glyph name="approxequal" format="1">
  <advance width="1024"/>
  <unicode hex="2248"/>
  <outline>
    <contour>
      <point x="666" y="738" type="curve" smooth="yes"/>
      <point x="801" y="738"/>
      <point x="925" y="839"/>
      <point x="955" y="1027" type="curve"/>
      <point x="846" y="1027" type="line"/>
      <point x="834" y="956"/>
      <point x="793" y="905"/>
      <point x="703" y="905" type="curve" smooth="yes"/>
      <point x="623" y="905"/>
      <point x="448" y="1043"/>
      <point x="295" y="1043" type="curve" smooth="yes"/>
      <point x="160" y="1043"/>
      <point x="37" y="943"/>
      <point x="7" y="754" type="curve"/>
      <point x="115" y="754" type="line"/>
      <point x="127" y="825"/>
      <point x="168" y="877"/>
      <point x="259" y="877" type="curve" smooth="yes"/>
      <point x="338" y="877"/>
      <point x="512" y="738"/>
    </contour>
    <contour>
      <point x="728" y="1131" type="curve" smooth="yes"/>
      <point x="863" y="1131"/>
      <point x="987" y="1232"/>
      <point x="1017" y="1420" type="curve"/>
      <point x="908" y="1420" type="line"/>
      <point x="896" y="1349"/>
      <point x="855" y="1298"/>
      <point x="765" y="1298" type="curve" smooth="yes"/>
      <point x="685" y="1298"/>
      <point x="510" y="1436"/>
      <point x="357" y="1436" type="curve" smooth="yes"/>
      <point x="222" y="1436"/>
      <point x="99" y="1336"/>
      <point x="69" y="1147" type="curve"/>
      <point x="177" y="1147" type="line"/>
      <point x="189" y="1218"/>
      <point x="230" y="1270"/>
      <point x="321" y="1270" type="curve" smooth="yes"/>
      <point x="400" y="1270"/>
      <point x="574" y="1131"/>
    </contour>
  </outline>
</glyph>
<glyph name="greaterequal" format="1">
  <advance width="1250"/>
  <unicode hex="2265"/>
  <outline>
    <contour>
      <point x="181" y="236" type="line"/>
      <point x="989" y="651" type="line"/>
      <point x="1024" y="870" type="line"/>
      <point x="347" y="1286" type="line"/>
      <point x="310" y="1053" type="line"/>
      <point x="827" y="761" type="line"/>
      <point x="217" y="465" type="line"/>
    </contour>
    <contour>
      <point x="82" y="0" type="line"/>
      <point x="964" y="0" type="line"/>
      <point x="992" y="175" type="line"/>
      <point x="110" y="175" type="line"/>
    </contour>
  </outline>
</glyph>
<glyph name="lozenge" format="1">
  <advance width="1104"/>
  <unicode hex="25CA"/>
  <outline>
    <contour>
      <point x="347" y="0" type="line"/>
      <point x="545" y="0" type="line"/>
      <point x="1002" y="754" type="line"/>
      <point x="783" y="1505" type="line"/>
      <point x="585" y="1505" type="line"/>
      <point x="102" y="754" type="line"/>
    </contour>
    <contour>
      <point x="478" y="188" type="line"/>
      <point x="316" y="754" type="line"/>
      <point x="655" y="1307" type="line"/>
      <point x="793" y="754" type="line"/>
    </contour>
  </outline>
</glyph>
